<svg xmlns="http://www.w3.org/2000/svg" viewBox="0 0 240 200" fill="none">
  <defs>
    <linearGradient id="nBg" x1="0%" y1="0%" x2="100%" y2="100%">
      <stop offset="0%" style="stop-color:#fef0f0"/>
      <stop offset="100%" style="stop-color:#fde2e2"/>
    </linearGradient>
  </defs>
  <!-- Background circle -->
  <circle cx="120" cy="100" r="80" fill="url(#nBg)"/>
  <!-- Bell icon -->
  <g transform="translate(120, 88)">
    <path d="M0-22c-12 0-22 10-22 22v8l-5 8h54l-5-8v-8c0-12-10-22-22-22z" fill="#F56C6C" opacity="0.2"/>
    <path d="M0-18c-10 0-18 8-18 18v7l-4 7h44l-4-7v-7c0-10-8-18-18-18z" stroke="#F56C6C" stroke-width="2" fill="none"/>
    <!-- Bell clapper -->
    <circle cx="0" cy="12" r="4" stroke="#F56C6C" stroke-width="2" fill="#fef0f0"/>
  </g>
  <!-- Exclamation mark -->
  <line x1="120" y1="76" x2="120" y2="90" stroke="#F56C6C" stroke-width="2.5" stroke-linecap="round"/>
  <circle cx="120" cy="96" r="1.5" fill="#F56C6C"/>
  <!-- Notification dots -->
  <circle cx="145" cy="68" r="6" fill="#F56C6C"/>
  <text x="145" y="71" text-anchor="middle" font-family="-apple-system, sans-serif" font-size="8" fill="#fff" font-weight="bold">3</text>
</svg>
